<svg version="1.1" id="Layer_1" xmlns="http://www.w3.org/2000/svg" xmlns:xlink="http://www.w3.org/1999/xlink" x="0px" y="0px"
	 width="100%" viewBox="0 0 1024 640" enable-background="new 0 0 1024 640" xml:space="preserve">
<path fill="#000000" opacity="1.000000" stroke="none" 
	d="
M375.080200,67.045273 
	C370.301849,73.693306 365.799774,80.101929 361.112549,86.372154 
	C359.596924,88.399658 359.579224,90.069298 360.658478,92.291893 
	C367.133789,105.627495 373.560608,118.988388 379.806549,132.432388 
	C381.268799,135.579788 382.744690,136.503113 386.274384,135.377457 
	C400.234161,130.925522 414.259491,126.660873 428.361481,122.684692 
	C432.424042,121.539207 433.998779,119.289093 434.507843,115.437469 
	C436.860474,97.637535 439.307281,79.850021 441.741302,62.060921 
	C442.281891,58.109852 442.705811,54.126606 443.551208,50.238117 
	C444.362518,46.506317 446.874298,45.225647 450.286835,47.199944 
	C474.739014,61.346630 495.692291,78.896095 506.150421,106.229797 
	C509.982941,116.246620 511.353943,126.844986 512.074158,137.507111 
	C512.184326,139.138306 512.089539,140.783371 512.089539,142.418533 
	C514.419067,142.796005 515.111755,141.189423 516.085266,140.218628 
	C522.575134,133.747040 529.069031,127.276711 535.414368,120.664619 
	C537.402283,118.593094 539.559631,117.755165 542.385254,117.438217 
	C551.138367,116.456398 558.587830,117.859169 564.381348,125.521790 
	C567.853882,130.114655 571.996033,135.450211 577.000244,137.291687 
	C582.213440,139.210098 587.606079,133.853302 593.047791,132.020279 
	C604.824280,128.053360 604.767456,127.890785 604.737000,115.577164 
	C604.719666,108.577942 604.856140,101.574318 604.645203,94.581055 
	C604.509155,90.071434 606.592712,88.075882 610.852539,88.068787 
	C629.850037,88.037140 648.847534,88.064697 667.845032,88.035423 
	C672.258667,88.028625 674.153259,90.220207 674.132019,94.535797 
	C674.084412,104.201019 674.292480,113.869949 674.084534,123.530663 
	C674.005676,127.195778 675.275269,128.889084 678.825256,129.768967 
	C685.130798,131.331863 691.308838,133.441757 697.106445,136.411682 
	C699.643860,137.711517 701.317383,137.312729 703.222839,135.333405 
	C708.307068,130.052216 713.531921,124.905434 718.740845,119.745621 
	C724.468201,114.072327 738.545776,114.526581 744.132263,120.184509 
	C753.141968,129.309479 762.359192,138.231155 771.559998,147.165329 
	C777.214233,152.655746 777.293030,154.046783 771.720093,159.670395 
	C765.386230,166.061920 759.156738,172.561951 752.668823,178.793076 
	C750.222778,181.142227 749.727783,182.998810 751.531250,186.048737 
	C756.637939,194.685120 760.558411,203.899017 763.043457,213.625305 
	C763.891907,216.946365 765.574707,217.792664 768.678772,217.754959 
	C778.176208,217.639587 787.676331,217.697525 797.175110,217.741806 
	C803.444336,217.771027 804.502625,218.895538 804.474670,224.981598 
	C804.411926,238.646378 804.402344,252.311386 804.332031,265.976135 
	C804.301575,271.905762 803.213806,273.063782 797.363892,273.113403 
	C787.865540,273.193970 778.363953,273.268005 768.868286,273.094666 
	C765.282654,273.029205 763.553223,274.198364 762.623230,277.819153 
	C760.169189,287.373322 756.426575,296.479309 751.240601,304.892517 
	C749.404297,307.871552 749.729126,309.747589 752.239441,312.166840 
	C759.436401,319.102844 766.344299,326.338165 773.400269,333.421539 
	C775.484314,335.513672 776.388550,337.414581 774.571472,340.418182 
	C772.248047,344.258667 776.378235,345.616821 778.298889,348.636902 
	C780.198425,344.802765 781.845276,341.603424 783.373962,338.348663 
	C784.371887,336.223999 782.858582,334.909607 781.545288,333.623077 
	C778.093567,330.241821 774.676880,326.820923 771.127014,323.544983 
	C768.195374,320.839478 768.050537,318.368011 770.963806,315.514069 
	C776.319580,310.267487 781.473877,304.815094 786.836121,299.575378 
	C791.057922,295.450195 799.149841,295.467987 803.575562,299.415588 
	C804.197266,299.970123 804.971191,300.430664 805.405090,301.107544 
	C810.491333,309.041412 816.924316,308.807159 824.435242,304.743652 
	C826.855530,303.434296 827.988708,302.143524 827.917725,299.463654 
	C827.794312,294.800354 827.922363,290.130615 827.810730,285.466766 
	C827.707703,281.158081 829.510864,278.915649 833.995728,278.937500 
	C844.827454,278.990234 855.659668,278.958893 866.491638,278.943268 
	C870.404785,278.937622 872.308899,280.797241 872.264648,284.765961 
	C872.212585,289.431091 872.461121,294.104614 872.267090,298.761475 
	C872.133118,301.977264 873.645020,303.156616 876.386108,304.560822 
	C883.500366,308.205322 888.548035,307.071472 893.855774,300.778442 
	C900.472961,292.932953 908.916260,293.387939 916.137329,300.646881 
	C920.838379,305.372498 925.603027,310.035309 930.272827,314.791382 
	C934.154724,318.745026 934.122498,320.320831 930.182922,324.380463 
	C927.049744,327.609039 923.919434,330.847229 920.644775,333.929108 
	C918.654297,335.802368 918.138367,337.584259 919.568176,340.061340 
	C920.811096,342.214722 921.797119,344.538208 922.697815,346.863525 
	C926.155151,355.789368 926.125305,355.800903 935.966370,355.818298 
	C950.247864,355.843536 950.246033,355.843567 950.233032,369.890717 
	C950.228577,374.723541 950.260315,379.556488 950.232117,384.389130 
	C950.191895,391.274506 949.189941,392.291168 942.494385,392.320404 
	C938.328247,392.338593 934.156189,392.464539 929.997681,392.287170 
	C927.028931,392.160522 925.499329,393.292358 924.525146,396.132782 
	C923.070801,400.373352 921.322021,404.539978 919.344727,408.564209 
	C918.100708,411.095886 918.402344,412.833527 920.402222,414.723206 
	C923.791931,417.926300 926.963867,421.358673 930.310730,424.608734 
	C933.259583,427.472290 933.492859,430.241760 930.480652,433.205322 
	C924.660339,438.931641 918.957642,444.779816 913.055115,450.419403 
	C909.870239,453.462341 900.068604,453.301025 896.704773,450.393494 
	C895.824829,449.632843 895.048889,448.751953 894.224915,447.926605 
	C886.312195,440.001099 886.345398,440.095459 875.750427,443.822113 
	C873.093445,444.756683 872.020203,446.151733 872.051147,448.877319 
	C872.105774,453.708374 871.948486,458.541473 871.921143,463.373962 
	C871.898865,467.311340 870.010559,469.085388 866.031128,469.031097 
	C857.700195,468.917297 849.361816,469.144165 841.036743,468.891693 
	C836.815247,468.763672 835.242493,470.023682 835.114319,474.505463 
	C834.560608,493.866913 836.651855,513.085632 837.926086,532.338623 
	C838.789490,545.383911 838.545593,546.135315 825.656250,546.068726 
	C757.510742,545.716553 689.362183,545.616150 621.221130,544.854980 
	C578.898621,544.382263 536.580383,544.020447 494.259735,544.410095 
	C484.450806,544.500366 474.650391,545.597656 464.848755,546.271057 
	C463.737854,546.347351 462.503571,546.324829 461.446991,547.910339 
	C467.060791,549.356567 472.462219,550.854187 477.914642,552.134888 
	C507.100372,558.989929 536.431885,565.135803 566.284912,568.243713 
	C574.372620,569.085571 582.597778,568.603149 590.759583,568.740356 
	C593.273254,568.782532 595.674377,568.835571 597.417725,571.279114 
	C599.046997,573.562805 601.903076,573.314209 604.299927,573.559448 
	C636.609314,576.865723 668.984192,579.067078 701.458313,580.148315 
	C730.952209,581.130249 760.441467,581.343445 789.920776,580.606873 
	C828.526978,579.642334 867.085876,577.597900 905.803772,571.342712 
	C885.624817,563.359985 865.445801,555.377258 845.266846,547.394470 
	C845.495300,546.818359 845.723694,546.242188 845.952148,545.666016 
	C868.561890,554.337830 891.171692,563.009583 914.592468,571.992432 
	C910.976685,575.179260 907.642090,574.816162 904.698242,575.160889 
	C859.381409,580.466858 813.954590,584.183228 768.317871,585.523010 
	C731.658936,586.599182 695.024536,586.714050 658.401001,585.014526 
	C640.284058,584.173828 622.194763,582.658936 604.111938,581.212158 
	C599.473999,580.841003 597.911682,582.272949 598.087341,586.953064 
	C598.437134,596.274170 598.168762,605.617004 598.406311,614.944458 
	C598.505432,618.834534 597.026733,620.265076 593.182922,620.303772 
	C572.525452,620.511658 551.869324,620.857483 531.213562,621.207886 
	C528.771667,621.249268 526.660706,620.492798 524.577759,619.355835 
	C518.875000,616.243164 513.093628,613.270935 507.446014,610.062439 
	C505.021637,608.685303 502.563660,608.169312 499.825073,608.187012 
	C445.005737,608.541077 390.186157,608.864258 335.366455,609.162598 
	C332.778748,609.176697 330.494659,609.372559 328.823456,611.821838 
	C327.665649,613.518677 325.461273,613.868042 323.659882,614.711731 
	C308.037994,622.027649 291.886597,625.052490 274.393158,624.431946 
	C238.437286,623.156433 202.426422,623.493896 166.441238,622.962097 
	C139.301392,622.560974 112.167534,621.757935 85.027832,621.340576 
	C80.338715,621.268494 78.615601,619.734802 78.592026,614.938782 
	C78.519966,600.282471 78.150177,585.623779 77.628998,570.975586 
	C77.466179,566.399536 79.023178,564.709473 83.627647,564.835388 
	C92.597176,565.080750 101.578163,564.907349 110.470482,564.907349 
	C110.909889,562.621216 109.493126,562.263184 108.799011,561.552673 
	C93.454391,545.845703 90.040970,525.952026 100.249306,506.471100 
	C121.899208,465.155884 144.010437,424.082642 165.731415,382.804321 
	C187.217438,341.972534 209.857727,301.731903 230.012772,260.222015 
	C240.883926,237.832596 248.007797,214.022400 251.458603,189.251236 
	C253.381821,175.445602 252.935028,161.693939 250.411011,147.989090 
	C249.416229,142.587631 250.560120,141.364258 255.999496,141.611725 
	C264.080811,141.979416 263.835236,141.916031 265.800781,134.302856 
	C275.960205,94.951477 295.309143,61.908394 331.491364,40.953003 
	C350.507385,29.939634 371.328857,26.280491 393.131256,27.900288 
	C399.449768,28.369717 400.816223,31.209547 397.170074,36.337292 
	C389.932220,46.516312 382.586060,56.618305 375.080200,67.045273 
M825.908630,414.447205 
	C825.683289,405.155396 825.695190,405.012573 818.908630,404.445770 
	C801.155090,402.962830 783.382263,401.645691 765.565491,401.340240 
	C741.910889,400.934692 718.237488,400.608429 694.678406,403.359833 
	C674.791138,405.682434 655.058228,408.753448 636.926147,418.060822 
	C636.021484,418.525177 634.968994,419.571045 633.385986,417.588593 
	C651.685974,405.018646 672.834595,400.963470 693.941345,396.728485 
	C693.213318,394.366150 691.688721,393.535736 690.465332,392.487030 
	C660.762390,367.024231 628.727905,344.893860 594.602905,325.801270 
	C547.404968,299.394501 497.779724,279.899292 443.726990,272.991302 
	C417.457489,269.634033 391.265686,269.709229 365.114380,273.937073 
	C360.714661,274.648346 356.503021,275.275818 353.874878,270.487976 
	C352.411438,271.383698 351.261841,272.049225 350.150330,272.773193 
	C316.668457,294.580597 292.541718,324.405243 275.580566,360.255920 
	C262.015930,388.927399 254.112503,419.298065 249.354523,450.544983 
	C247.861923,460.347290 245.918259,470.118530 246.008926,479.929657 
	C247.631363,481.169739 249.184601,480.760590 250.638519,480.752014 
	C263.509949,480.676300 276.296173,482.044128 288.871521,484.433380 
	C327.323090,491.738983 365.930450,497.919250 404.912079,501.501862 
	C443.241577,505.024506 481.687592,506.853149 520.157471,507.521790 
	C581.308350,508.584717 642.451904,507.752808 703.563782,505.134247 
	C704.667053,505.086975 706.009949,504.767487 706.162781,506.797943 
	C705.217590,506.973267 704.272522,507.233856 703.312317,507.314056 
	C686.728455,508.699249 670.142883,510.064941 653.557251,511.429596 
	C619.680359,514.216980 585.722656,515.359070 551.755371,516.000488 
	C523.437622,516.535156 495.132202,515.700073 466.827087,514.472351 
	C441.866272,513.389587 416.968170,511.614471 392.140930,508.999420 
	C361.009308,505.720337 330.183014,500.398407 299.600098,493.720947 
	C279.370239,489.303925 259.046021,485.955475 238.219666,487.264557 
	C235.406769,487.441345 232.592590,487.520966 229.565186,489.519440 
	C234.589935,511.677155 239.644424,533.966003 244.925232,557.252930 
	C243.764221,556.155762 243.402771,555.975647 243.310822,555.704224 
	C235.881256,533.768005 230.621780,511.212952 224.294983,488.961823 
	C223.516174,486.222778 225.054810,484.747498 227.325409,484.110046 
	C230.841965,483.122833 234.415588,482.188141 238.028214,481.735016 
	C241.909958,481.248169 243.351349,479.294586 243.710022,475.544220 
	C244.960495,462.469086 246.808487,449.470459 249.234268,436.553894 
	C252.330505,420.067169 256.376923,403.819580 261.830231,386.765045 
	C260.855713,388.052338 260.514984,388.383484 260.314117,388.784607 
	C245.471466,418.428375 230.933197,448.229156 215.723648,477.683289 
	C200.952530,506.288422 188.759918,536.298767 170.454376,563.133118 
	C177.212830,564.586792 184.491837,563.084412 191.747772,563.063416 
	C224.232422,562.969238 256.717926,562.950989 289.200867,562.658752 
	C296.017059,562.597534 302.472168,563.359497 308.534454,566.512756 
	C311.645050,568.130737 314.812592,568.220581 318.199890,567.585999 
	C351.225555,561.399292 384.095612,554.381531 417.289215,549.090271 
	C447.730865,544.237793 478.312836,540.721924 509.142578,539.865234 
	C533.959961,539.175598 558.793274,539.496460 583.619263,539.238892 
	C662.431396,538.421265 741.254089,539.160889 820.066711,538.002625 
	C824.188171,537.942017 828.368530,537.566956 833.065491,540.389221 
	C829.495911,498.119843 828.031921,456.737152 825.908630,414.447205 
M220.777084,453.354156 
	C226.999359,441.757751 232.930450,429.992615 239.525269,418.612091 
	C246.211395,407.073944 250.562531,394.430786 256.973022,382.835693 
	C263.000641,371.933197 271.037170,362.111908 276.750244,351.070068 
	C303.858215,298.677856 345.086700,262.873657 400.735931,243.478500 
	C423.342773,235.599442 446.672516,231.095657 470.341461,228.165512 
	C474.146973,227.694397 476.237762,225.921875 477.915466,222.739883 
	C485.934235,207.531494 493.132355,191.972961 498.157104,175.497040 
	C503.621277,157.580200 506.148773,139.309509 502.119232,120.799500 
	C495.854614,92.022705 476.489044,73.362091 452.582062,58.457642 
	C452.218689,58.231091 451.656403,58.323612 451.118927,58.259045 
	C450.874298,58.763733 450.536652,59.176525 450.475830,59.626724 
	C447.669220,80.396637 444.841492,101.163956 442.143158,121.948036 
	C441.659546,125.672981 440.146484,128.011017 436.373047,129.104553 
	C418.783997,134.201797 401.219025,139.384735 383.689178,144.681702 
	C379.455505,145.960983 376.869812,145.069351 374.920410,140.859879 
	C367.430817,124.687088 359.734955,108.608948 351.998718,92.552032 
	C350.514801,89.472145 350.751129,87.061401 352.822296,84.291580 
	C360.205292,74.418343 367.388763,64.395668 374.622681,54.411385 
	C378.956818,48.429337 383.244354,42.413486 387.469330,36.529125 
	C385.922485,35.006348 384.696625,35.250313 383.571442,35.220142 
	C358.666840,34.552288 336.626648,42.504730 317.634979,58.310368 
	C292.532013,79.202080 277.434357,106.298378 270.219025,137.951736 
	C269.758850,139.970444 267.862885,142.678589 271.707794,143.569473 
	C275.217621,144.382736 276.204834,142.432068 276.800171,139.261642 
	C279.639526,124.141983 283.888550,109.453308 291.395599,95.898529 
	C305.230927,70.917305 324.690002,53.241463 353.781494,48.226292 
	C356.363983,47.781082 359.057434,47.081211 363.090393,48.870071 
	C313.881439,63.063145 294.216827,101.240753 279.176910,144.068344 
	C287.772400,146.657303 296.189697,146.282944 304.468140,149.226639 
	C302.208435,150.800980 300.487213,150.374619 298.875427,150.333130 
	C287.389404,150.037277 275.897430,149.822449 264.424316,149.244476 
	C259.582031,149.000504 258.686859,150.992599 259.551300,155.190903 
	C260.626251,160.411362 261.186737,165.718109 261.189270,171.060959 
	C261.200958,195.493439 254.883133,218.440247 244.941940,240.557053 
	C239.732452,252.146957 232.160828,262.425018 226.462097,273.694611 
	C200.454773,325.125580 174.795685,376.732635 148.996704,428.269012 
	C134.754822,456.718811 120.260406,485.045166 106.323799,513.643494 
	C99.728302,527.177612 103.610207,543.690613 113.874847,554.299744 
	C124.762558,565.552795 144.104080,566.266907 155.740128,561.074524 
	C163.516418,557.604431 168.898758,551.585571 172.820236,544.162354 
	C188.694427,514.112732 204.562790,484.059967 220.777084,453.354156 
M795.942322,252.478851 
	C795.944214,245.646439 795.749023,238.806198 796.020020,231.984467 
	C796.189880,227.708984 794.870117,226.027588 790.371155,226.184433 
	C781.549072,226.492035 772.702454,226.086884 763.879517,226.380905 
	C759.153931,226.538391 756.807678,224.632584 755.845154,220.169296 
	C753.293030,208.334579 748.792847,197.228241 742.289001,187.041962 
	C739.315857,182.385391 739.806458,179.122574 743.866760,175.389175 
	C751.322205,168.533905 758.356873,161.220963 765.248352,154.413498 
	C755.940552,145.040878 747.098267,136.137024 737.691406,126.664711 
	C730.840454,133.641129 723.548950,140.705582 716.705078,148.179916 
	C712.999207,152.227097 709.877563,152.849304 705.125854,149.747742 
	C695.301636,143.335266 684.556274,138.731445 673.033691,136.330750 
	C667.813171,135.243073 665.799438,132.567429 666.025879,127.331223 
	C666.364197,119.512154 666.240112,111.673988 666.378723,103.845116 
	C666.505371,96.689735 665.955933,96.041145 659.010803,95.999519 
	C650.178772,95.946579 641.343689,96.052589 632.515442,95.849388 
	C628.420593,95.755127 626.898682,97.315392 626.980225,101.421959 
	C627.152222,110.083374 626.776184,118.756752 626.997559,127.415695 
	C627.126892,132.475662 625.144470,135.014679 620.167786,135.995956 
	C608.270325,138.341812 597.306824,143.195801 587.029602,149.522003 
	C583.389038,151.763046 580.775024,151.461929 577.861450,148.357178 
	C571.592773,141.677155 564.944397,135.351456 558.726746,128.626205 
	C555.729309,125.383987 553.623596,124.848625 550.372742,128.414932 
	C545.102722,134.196350 539.280701,139.470825 533.804932,145.070038 
	C531.065247,147.871460 527.811646,150.251251 525.398010,154.490631 
	C533.294128,162.188690 541.096191,169.914230 549.049072,177.481232 
	C551.694153,179.997986 551.987488,182.273895 549.989014,185.343079 
	C543.110840,195.906357 538.275818,207.396729 535.352661,219.642349 
	C534.485779,223.273911 532.582764,224.450302 529.011780,224.370834 
	C519.516357,224.159500 510.015320,224.181671 500.516449,224.174332 
	C498.841766,224.173035 497.018341,223.727768 494.787170,225.193710 
	C497.901917,226.244278 500.370331,225.813477 502.771210,225.746307 
	C533.498718,224.886642 564.068176,226.171997 594.220703,232.701736 
	C598.139648,233.550385 599.644531,232.406235 600.953003,228.660446 
	C608.023438,208.419357 628.917297,194.126709 649.464600,195.095810 
	C685.797241,196.809418 708.164917,231.590912 694.534607,265.373413 
	C693.156372,268.789368 693.455261,270.699585 696.744385,272.659943 
	C710.958679,281.131866 723.987366,291.222351 736.289429,302.274536 
	C737.699280,303.541138 738.885315,305.399780 741.371094,305.203033 
	C741.832520,304.566650 742.355591,303.925598 742.792542,303.230377 
	C748.963440,293.411530 753.439941,282.872528 755.831848,271.520508 
	C756.849243,266.692230 759.182434,264.386841 764.406982,264.653564 
	C771.221680,265.001434 778.068970,264.804321 784.900391,264.708862 
	C797.390442,264.534302 795.796631,266.604187 795.942322,252.478851 
M589.422180,271.008820 
	C634.937134,301.142548 668.964844,341.505096 694.270081,389.469818 
	C696.971863,394.591003 699.622314,396.417847 705.311340,395.693298 
	C731.983215,392.296448 758.763184,391.900116 785.587463,393.576202 
	C788.334717,393.747864 791.146057,394.052399 793.732239,393.307678 
	C794.217041,391.663605 793.375183,390.727966 792.865356,389.724121 
	C781.636108,367.612549 767.757996,347.211151 751.201294,328.845856 
	C718.309021,292.360565 678.397095,266.200684 631.837341,250.412979 
	C603.979492,240.966782 575.386902,235.076385 545.976807,233.017242 
	C523.039001,231.411270 500.161652,231.542206 475.906525,233.424362 
	C529.033142,237.719284 562.086853,253.515121 589.422180,271.008820 
M822.264099,316.731079 
	C815.729248,320.476257 815.778687,320.425964 810.453613,315.195404 
	C806.915100,311.719696 803.876953,307.707428 799.912720,304.896606 
	C794.948120,310.018555 790.140503,314.978516 784.913818,320.370819 
	C788.439148,324.092072 792.311096,328.412842 796.450317,332.460236 
	C798.905457,334.860870 799.301819,336.959900 797.275269,339.841034 
	C792.900940,346.059631 790.864563,353.321198 788.429871,360.410034 
	C787.727173,362.455841 788.324402,363.909302 789.281616,365.528351 
	C794.282776,373.987671 799.216431,382.488953 803.356018,391.412384 
	C804.483826,393.843567 806.186707,394.749664 808.797119,394.942017 
	C814.934692,395.394409 821.041016,396.301178 827.181152,396.681213 
	C832.206421,396.992188 834.203308,399.444885 834.250732,404.334503 
	C834.344360,413.990936 834.769592,423.643921 834.898132,433.300446 
	C834.939270,436.386841 835.785767,438.411896 839.132446,438.942413 
	C842.323792,439.448334 843.413208,441.553375 843.319275,444.689911 
	C843.179688,449.350128 843.400940,454.020813 843.276733,458.681946 
	C843.203064,461.447113 844.257019,462.699402 847.051636,462.569214 
	C851.873718,462.344543 856.699158,462.187012 861.523926,462.024506 
	C864.128662,461.936707 864.906067,460.381836 864.887024,458.057465 
	C864.850159,453.559570 865.015991,449.054077 864.805054,444.565491 
	C864.635132,440.948242 866.130188,439.028198 869.581116,438.118347 
	C876.208679,436.370880 882.608643,433.989349 888.376587,430.192322 
	C891.722961,427.989380 894.461609,428.497620 897.216492,431.368927 
	C900.982666,435.294312 905.001343,438.977570 909.755981,443.582214 
	C913.635376,439.360077 916.997925,435.459198 920.634338,431.833008 
	C922.829895,429.643555 922.674561,428.057556 920.494690,426.056915 
	C917.428528,423.242584 914.676270,420.078979 911.546936,417.342438 
	C908.170837,414.390289 907.817200,411.316681 910.219177,407.678162 
	C913.464722,402.761841 915.491699,397.299591 917.179260,391.702484 
	C919.520264,383.938416 919.501099,383.932648 927.422241,383.899719 
	C942.801819,383.835785 942.732849,383.840118 941.762695,368.453003 
	C941.573120,365.446960 940.415100,364.286743 937.500977,364.351288 
	C933.171570,364.447205 928.833740,364.249573 924.508423,364.413666 
	C920.761841,364.555817 918.499512,363.132446 917.722412,359.357758 
	C916.364197,352.760468 913.731567,346.611298 910.192749,340.948212 
	C907.546570,336.713654 908.307434,333.679565 911.854370,330.505371 
	C915.639526,327.118042 919.074951,323.340027 923.613037,318.777435 
	C919.404907,315.048462 915.629822,312.021820 912.253174,308.601807 
	C909.901367,306.219757 908.254517,306.378815 906.092224,308.687378 
	C903.019470,311.967957 899.699097,315.015015 896.548035,318.224213 
	C894.376465,320.435974 892.035583,320.930695 889.374939,319.234375 
	C882.992798,315.165436 876.085144,312.350861 868.746887,310.570496 
	C865.886658,309.876556 864.607483,308.128571 864.655640,305.177429 
	C864.731750,300.514130 864.562866,295.845856 864.684875,291.184601 
	C864.762573,288.213684 863.576416,286.904724 860.586365,286.968048 
	C856.423584,287.056122 852.256836,287.015656 848.092712,286.959076 
	C845.362244,286.921967 844.175659,288.200256 844.186829,290.904663 
	C844.205383,295.401947 844.088257,299.899689 844.058411,304.397400 
	C844.036682,307.675659 842.622498,309.619904 839.249878,310.333374 
	C833.524963,311.544403 828.078186,313.619171 822.264099,316.731079 
M151.480469,570.370728 
	C130.164566,570.276794 108.845680,570.276917 87.547371,569.278687 
	C83.607330,569.093994 82.047142,570.210754 81.826019,574.515991 
	C81.176132,587.169250 81.396812,599.823364 81.164574,612.474609 
	C81.047417,618.856567 81.184303,618.975464 87.472450,618.843140 
	C115.939713,618.244202 144.404312,617.468689 172.874222,617.057800 
	C209.343536,616.531372 245.820160,615.879272 282.287018,616.155273 
	C295.091675,616.252258 306.456421,612.730957 317.817505,607.875183 
	C320.416351,606.764465 321.780670,605.231567 321.698212,602.245544 
	C321.537354,596.419678 321.637360,590.586792 321.623505,584.756775 
	C321.619904,583.241699 321.722443,581.427551 320.132263,580.784058 
	C312.153015,577.555054 304.559662,572.178894 295.845459,572.210083 
	C248.040375,572.381226 200.255325,571.546814 151.480469,570.370728 
M579.518982,310.908905 
	C599.423340,321.454681 618.409729,333.465271 636.843201,346.403442 
	C655.200012,359.287781 672.400940,373.663300 689.999329,387.575836 
	C689.796509,386.150146 689.263672,385.123657 688.676270,384.129425 
	C674.017212,359.319214 656.397705,336.813904 635.934875,316.536011 
	C585.533203,266.589874 526.194214,238.870331 453.878204,242.103027 
	C429.971283,243.171722 408.092163,249.783203 387.275208,260.943695 
	C386.694855,261.254822 385.576233,261.354523 386.088104,262.704071 
	C455.342133,258.459198 518.627014,278.394775 579.518982,310.908905 
M350.500488,587.322205 
	C345.500854,587.331848 340.469788,587.697754 335.509613,587.260132 
	C329.443359,586.724915 330.342590,590.659973 330.187561,594.314026 
	C330.022156,598.212952 330.243256,600.798584 335.578308,600.788208 
	C384.068207,600.694336 432.558777,601.029114 481.046631,601.251648 
	C497.608215,601.327698 512.659363,603.187561 526.045471,613.359985 
	C527.736145,614.644775 529.657043,615.660339 531.996704,615.667969 
	C551.494446,615.731812 570.992249,615.835754 590.489502,615.990906 
	C593.333801,616.013611 594.785156,615.092041 594.838867,611.995422 
	C595.046936,600.002686 595.309082,588.008972 595.762878,576.023621 
	C595.904480,572.283691 594.584229,571.061279 590.877319,571.171997 
	C577.891602,571.560120 564.843445,572.546021 551.921753,571.712219 
	C535.899231,570.678406 521.711487,574.266907 508.955627,583.879822 
	C506.602997,585.652832 503.907043,586.186951 500.966461,586.224304 
	C484.474213,586.433472 467.981140,586.521118 451.488312,586.799805 
	C418.165558,587.362854 384.830414,587.191467 350.500488,587.322205 
M373.215820,579.422424 
	C377.210205,579.476562 381.204468,579.542542 385.199005,579.582886 
	C422.664917,579.961487 460.143188,579.313904 497.594940,580.684814 
	C507.040924,581.030579 513.312012,574.960815 521.270996,571.306091 
	C519.283386,569.631836 517.590027,569.548096 515.988647,569.249573 
	C488.992035,564.215698 462.234955,558.171021 435.912140,550.294189 
	C434.102997,549.752808 432.339050,549.860596 430.493408,550.096863 
	C393.068695,554.888489 356.312714,563.394470 318.838531,569.869873 
	C322.172394,572.801025 327.220428,572.247375 329.280090,575.936523 
	C330.940033,578.909729 333.161926,579.031616 335.920013,579.046875 
	C348.074524,579.114319 360.228485,579.275696 373.215820,579.422424 
M668.846863,237.747818 
	C667.912781,224.488815 662.036621,213.953110 651.348328,206.095444 
	C644.562500,201.106735 637.336182,199.704880 629.268982,202.959610 
	C615.100708,208.675812 605.972717,218.748444 601.361267,233.997757 
	C623.855774,239.245026 645.240540,246.279556 665.838928,255.694733 
	C669.266235,249.988632 668.944946,244.310837 668.846863,237.747818 
M520.322510,204.968353 
	C522.558105,198.132462 525.705872,191.697601 529.303467,185.508728 
	C530.889526,182.780212 530.932617,181.019150 528.415710,178.744873 
	C523.356689,174.173553 518.689270,169.171097 513.784363,164.424957 
	C512.684204,163.360474 511.855103,161.591858 509.506226,162.106735 
	C505.422394,182.007843 497.576019,200.638779 488.047699,219.829361 
	C495.517151,219.829361 501.947845,219.483948 508.322479,219.933533 
	C513.891479,220.326294 517.193909,218.850571 517.843201,212.845184 
	C518.106018,210.414719 519.280823,208.082870 520.322510,204.968353 
M662.079590,206.517395 
	C674.805786,218.553955 679.345154,233.426804 676.674744,250.461288 
	C675.097961,260.519287 674.740356,260.466583 683.998657,264.826630 
	C684.263916,264.951538 684.639465,264.842407 684.963562,264.840790 
	C697.279907,245.235703 687.066711,210.173981 658.137451,202.854141 
	C659.447083,204.052704 660.530579,205.044327 662.079590,206.517395 
M527.361633,163.139862 
	C523.782898,161.023407 522.225342,154.171631 514.589905,158.804306 
	C521.382690,165.281342 527.649353,171.433868 534.128418,177.353928 
	C537.015930,179.992264 537.168823,182.272247 535.037170,185.516541 
	C529.339172,194.188843 525.077087,203.582169 522.217834,213.569412 
	C521.605530,215.708160 519.465942,218.864960 523.476624,219.549637 
	C526.526794,220.070343 530.578491,221.415878 531.847656,216.084122 
	C534.405090,205.340073 538.511536,195.154877 544.135437,185.641220 
	C545.783630,182.853149 545.534546,180.921982 543.170959,178.702560 
	C537.953430,173.803223 532.949585,168.676346 527.361633,163.139862 
M619.668945,107.533829 
	C619.656067,104.712715 619.645752,101.891579 619.629456,99.070488 
	C619.617371,96.977615 618.435303,96.099342 616.470642,96.100311 
	C614.619263,96.101227 612.404846,95.995796 612.376404,98.554756 
	C612.260925,108.936569 612.328369,119.320412 612.328369,129.849197 
	C617.492188,130.127014 620.130554,128.759750 619.755249,123.452919 
	C619.404846,118.498726 619.673096,113.500771 619.668945,107.533829 
M524.743225,139.240112 
	C521.832581,142.510712 518.048645,145.021225 515.849304,148.913162 
	C518.725952,151.271881 520.803833,150.560394 522.987488,148.257584 
	C528.019409,142.951218 533.390015,137.959442 538.301941,132.548462 
	C540.859375,129.731201 544.211487,127.494751 545.994751,123.782143 
	C542.940002,122.807144 540.821777,123.650558 538.874634,125.572662 
	C534.380066,130.009445 529.795349,134.354904 524.743225,139.240112 
M790.044617,342.707123 
	C790.898804,339.917023 794.726929,337.229523 789.702148,333.642944 
	C790.660828,336.524139 789.252319,338.111023 788.269226,339.927460 
	C786.374878,343.427338 784.683167,347.039337 782.976562,350.637604 
	C781.893372,352.921448 781.798340,355.069122 784.479858,356.891907 
	C786.281677,352.255188 788.004883,347.820587 790.044617,342.707123 
M716.445251,136.948578 
	C720.117920,133.179565 723.790649,129.410568 727.463318,125.641556 
	C722.295288,126.693260 710.130920,139.076721 709.381775,142.724228 
	C712.453796,141.854523 713.830322,139.167694 716.445251,136.948578 
M837.642395,455.945435 
	C837.369934,452.071198 838.479858,448.013397 836.052795,444.370361 
	C834.855225,449.864532 834.982605,455.303558 835.452942,461.661804 
	C837.503479,459.711975 837.519897,458.230072 837.642395,455.945435 
M836.776367,298.921509 
	C836.776367,295.457672 836.776367,291.993805 836.776367,288.529968 
	C835.180237,293.191284 835.007751,297.779938 835.734741,302.607971 
	C837.126099,301.683350 836.577393,300.600830 836.776367,298.921509 
M489.571320,226.479355 
	C490.503845,226.066589 491.719482,225.267258 490.310425,224.561050 
	C488.534271,223.670898 486.357697,223.487625 484.937073,225.730011 
	C486.332825,227.080704 487.688568,226.437912 489.571320,226.479355 
z"/>
<path fill="#000000" opacity="1.000000" stroke="none" 
	d="
M326.155487,226.188507 
	C320.390839,225.926804 315.081329,225.591385 309.766876,225.466019 
	C304.626312,225.344742 299.480682,225.439728 294.287354,225.609283 
	C318.880585,228.362427 343.473816,231.115585 368.067047,233.868729 
	C361.740662,235.907196 355.502289,234.521423 349.324463,234.110641 
	C328.559845,232.729919 307.777527,231.865265 286.988129,231.069748 
	C285.166138,231.000015 283.334076,230.788605 281.540649,230.458435 
	C277.181061,229.655869 274.657684,226.949936 274.702576,222.538315 
	C274.880524,205.053238 276.249481,187.627747 277.977936,170.241364 
	C278.480499,165.185806 282.402710,162.378494 288.137787,162.808853 
	C299.918152,163.692917 311.680115,164.874893 323.426208,166.149734 
	C339.637665,167.909256 355.813782,169.998917 372.031311,171.695999 
	C383.190399,172.863754 384.533600,174.277740 383.413086,185.353455 
	C382.647339,192.922302 381.946228,200.497711 381.216217,208.070175 
	C380.731567,208.075974 380.246887,208.081772 379.762207,208.087555 
	C379.762207,204.477051 379.676819,200.863907 379.787933,197.256805 
	C379.885162,194.099380 380.152679,190.944244 380.432678,187.795914 
	C381.515717,175.618500 380.529633,176.224030 370.621033,175.974854 
	C356.838867,175.628265 343.073059,174.630463 329.282318,174.306778 
	C342.589050,176.071716 355.902924,177.785172 369.198914,179.627502 
	C374.347961,180.340958 378.747131,184.704910 378.160461,189.756668 
	C377.017242,199.600647 375.003387,209.343536 373.138977,220.377914 
	C371.393280,217.667953 371.782379,215.879272 371.760529,214.226944 
	C371.670380,207.398758 371.651520,200.569687 371.586639,193.741119 
	C371.571320,192.127930 371.184204,190.643753 369.220886,190.550430 
	C367.400787,190.463913 367.183563,191.970276 366.950043,193.286072 
	C365.991150,198.689545 364.943085,204.071838 365.185638,209.622406 
	C365.389313,214.282532 365.596130,219.002213 362.342194,222.876404 
	C364.646393,226.315018 368.096771,225.283325 371.817902,225.813416 
	C367.896515,228.978577 364.573273,227.715607 361.595123,226.285553 
	C359.314270,225.190323 357.155365,224.365204 354.604828,224.037949 
	C347.100006,223.075058 344.420532,219.201492 346.394073,211.906433 
	C348.227722,205.128403 347.702301,198.387100 347.032501,191.590286 
	C346.880981,190.053192 346.676514,188.366455 344.606079,188.507111 
	C342.649536,188.640076 342.481232,190.293869 342.360748,191.843765 
	C341.922913,197.477295 340.653961,203.048904 341.138245,208.751450 
	C341.512329,213.156708 340.531891,217.297516 338.287231,221.073364 
	C340.885864,223.971268 345.090057,223.543991 347.592041,226.787720 
	C340.323395,228.231155 333.485931,225.849243 326.155487,226.188507 
M323.659454,199.719177 
	C323.404541,196.243088 323.157288,192.766403 322.890900,189.291199 
	C322.784729,187.905884 322.538116,186.518158 320.760864,186.475067 
	C319.059937,186.433823 318.601288,187.685196 318.362030,189.102600 
	C316.842712,198.102875 315.359833,207.109909 313.738251,216.091843 
	C313.352173,218.230270 313.812927,219.771957 315.815552,220.549774 
	C321.793121,222.871475 328.056976,223.087433 334.348541,223.079193 
	C333.163635,222.379288 331.898621,222.231049 330.646851,222.008423 
	C324.284393,220.876892 323.575531,219.991379 323.645844,213.640503 
	C323.693695,209.318863 323.663147,204.996368 323.659454,199.719177 
M290.085297,217.520493 
	C293.762146,220.136368 298.195374,218.111938 302.525482,219.446594 
	C298.964722,218.004913 298.715790,215.338867 299.179901,212.419632 
	C300.499298,204.120926 298.634491,195.877213 298.775818,187.599060 
	C298.802460,186.036789 298.564484,184.441391 296.537231,184.377792 
	C294.425659,184.311539 294.453583,186.020767 294.195740,187.509720 
	C292.952576,194.687881 291.572235,201.843704 290.437714,209.038528 
	C290.031555,211.614380 288.765320,214.143127 290.085297,217.520493 
M352.442139,192.136017 
	C348.516937,199.298889 351.701843,206.736420 351.678558,214.043152 
	C351.674469,215.321442 353.156250,215.718414 354.416077,215.561142 
	C356.041229,215.358276 356.437469,214.156464 356.704041,212.744720 
	C357.596161,208.020432 358.533112,203.303848 359.522491,198.598938 
	C360.722809,192.891205 359.369080,191.424088 352.442139,192.136017 
M310.148071,183.792801 
	C310.558960,179.972473 308.133026,181.087280 305.996582,181.117950 
	C306.073181,184.648346 305.268219,187.689651 304.692444,190.783295 
	C303.608185,196.609634 301.480774,202.373138 303.168671,208.471954 
	C303.534271,209.792984 303.606720,211.214508 305.302582,211.402740 
	C307.197845,211.613129 308.083374,210.263565 308.348633,208.740021 
	C309.518555,202.020874 310.574219,195.236465 309.292023,188.455063 
	C308.974823,186.777405 309.108551,185.657333 310.148071,183.792801 
M332.916046,207.527695 
	C333.852966,203.007843 334.855865,198.500275 335.699799,193.963120 
	C336.142639,191.582199 334.755310,190.264786 332.593689,189.632690 
	C331.116272,189.200668 329.898590,189.554001 329.414642,191.098022 
	C327.315765,197.794785 326.378723,204.619720 327.466858,211.618805 
	C327.632355,212.683121 328.393768,213.365341 329.490875,213.499405 
	C330.583527,213.632904 331.527985,213.188858 331.888702,212.165390 
	C332.321991,210.935974 332.503357,209.617783 332.916046,207.527695 
M355.859222,183.282059 
	C352.154816,183.767059 354.552887,186.303055 354.395172,187.904068 
	C354.280975,189.063568 355.271057,189.740341 356.401093,189.523239 
	C359.427460,188.941803 358.683838,185.935226 359.978973,184.343887 
	C358.900482,182.954315 357.636017,183.469925 355.859222,183.282059 
M331.706146,187.508423 
	C335.143250,187.417847 334.704407,184.995575 334.842102,182.822403 
	C333.191895,182.093842 331.818634,182.000198 330.369568,182.746490 
	C329.957703,184.364639 329.907166,185.905411 331.706146,187.508423 
M282.980621,218.019943 
	C282.980621,216.078568 282.980621,214.137207 282.980621,212.195831 
	C281.235168,223.888504 281.235168,223.888504 286.489410,224.191544 
	C284.989532,222.550201 283.521210,220.984650 282.980621,218.019943 
z"/>
<path fill="#000000" opacity="1.000000" stroke="none" 
	d="
M136.850342,543.380371 
	C137.026276,540.644104 138.968781,542.114624 140.102524,541.989319 
	C145.977142,541.339966 150.585968,537.451904 151.632324,531.938904 
	C152.691422,526.358948 149.917450,520.806702 144.775803,518.215088 
	C139.869827,515.742249 133.367355,516.938965 129.685715,520.992188 
	C125.697258,525.383423 125.275154,530.966187 128.575058,536.155762 
	C129.361893,537.393188 130.248245,538.567322 131.267776,540.026733 
	C124.521454,537.840149 121.276115,529.534851 123.644005,521.377625 
	C126.441719,511.739655 135.875702,506.469879 145.527252,509.153748 
	C154.720871,511.710266 160.493439,521.008850 158.386063,529.867065 
	C155.941269,540.143555 147.107697,545.843750 136.850342,543.380371 
z"/>
<path fill="#000000" opacity="1.000000" stroke="none" 
	d="
M835.616089,397.434387 
	C831.073608,393.035248 827.318176,388.594208 827.114868,382.195160 
	C829.980530,385.176270 831.301025,389.161621 834.123596,392.182587 
	C836.464111,394.687469 838.977295,395.863525 842.445557,395.734253 
	C852.328552,395.365814 861.411560,388.550323 864.858093,378.625793 
	C868.002686,369.570953 864.810486,358.557922 857.262573,352.421265 
	C851.040283,347.362396 844.515442,347.728210 837.279785,353.468262 
	C832.483582,357.272980 829.468262,362.343933 827.164795,368.875702 
	C826.237305,364.955627 826.375122,364.118988 828.058960,360.706482 
	C835.881226,344.854126 855.944946,338.735504 871.666504,347.408020 
	C886.624817,355.659546 891.655701,375.356415 882.637146,390.360565 
	C873.546814,405.484314 853.981445,409.853058 839.081848,400.068878 
	C837.971497,399.339752 836.950745,398.474213 835.616089,397.434387 
M861.786682,397.137512 
	C861.645569,397.402954 861.504395,397.668365 861.363220,397.933777 
	C861.499817,398.002686 861.669861,398.163391 861.768188,398.127472 
	C871.273376,394.655151 876.354797,387.538361 878.293823,377.902008 
	C879.907532,369.882324 876.361877,360.675110 869.839417,355.695801 
	C877.976440,371.173218 875.068420,386.828125 861.786682,397.137512 
z"/>
<path fill="#000000" opacity="1.000000" stroke="none" 
	d="
M289.788452,594.959229 
	C289.799805,582.263855 289.799103,582.172546 277.734558,582.266479 
	C242.578568,582.540222 207.437820,581.634521 172.295654,580.930176 
	C154.482788,580.573181 136.676971,579.855347 118.869522,579.254883 
	C117.308258,579.202271 115.515053,579.722473 114.186493,577.967041 
	C114.935814,576.456482 116.384003,576.780212 117.582909,576.749878 
	C146.219284,576.025513 174.856537,575.335632 203.493332,574.627136 
	C231.792969,573.927124 260.078735,572.583923 288.400940,572.941650 
	C297.548340,573.057190 298.396179,573.805908 298.364532,582.901855 
	C298.336090,591.065613 298.246460,599.231262 298.382721,607.392700 
	C298.461212,612.096008 296.290436,614.091309 291.736664,614.014160 
	C261.593842,613.503906 231.450592,613.018250 201.307388,612.531006 
	C195.810837,612.442139 190.314011,612.345581 184.816986,612.315857 
	C162.162857,612.193298 139.534592,611.205627 116.903481,610.313354 
	C115.960632,610.276184 114.892509,610.512268 114.157913,609.399536 
	C115.528740,607.398376 117.701576,607.946289 119.551888,607.905396 
	C155.849731,607.102234 192.129990,605.687927 228.446823,605.456299 
	C246.428772,605.341553 264.418427,605.018311 282.405792,604.893188 
	C289.751068,604.842041 289.751587,604.867432 289.790192,597.443726 
	C289.793671,596.777344 289.789795,596.111023 289.788452,594.959229 
z"/>
</svg>